:FULLY-SPECIFIED
:FORCE-ALL-JOINTS-BE-3DOF
:DEGREES
577
root 7.06056 16.1345 -3.49456 -179.592 69.1199 -186.277
lfemur -20.0357 2.76533 -17.6899
ltibia 53.1052 0 0
lfoot -36.1554 0.428237 0
ltoes -4.98105 0 0
rfemur -46.5475 -6.3192 7.35112
rtibia 32.2665 0 0
rfoot 14.4913 10.1452 0
rtoes -38.0045 0 0
lowerback 7.78385 -0.722319 -1.60322
upperback 2.97538 -0.868361 4.11585
thorax -1.19933 -0.405699 5.26207
lowerneck -3.95874 -14.1615 -4.52353
upperneck 9.26673 -19.1155 5.46428
head 4.37153 -9.30405 1.26647
lclavicle 2.40362e-14 -3.93441e-14 0
lhumerus -45.6528 -10.7154 98.5149
lradius 54.5156 0 0
lwrist 20.8396 0 0
lhand -22.8695 -6.44251 0
lfingers 7.12502 0 0
lthumb 3.56978 23.5247 0
rclavicle 2.40362e-14 -3.93441e-14 0
rhumerus 26.6543 17.902 -74.6506
rradius 134.779 0 0
rwrist -43.1041 0 0
rhand -26.6032 -21.4238 0
rfingers 7.12502 0 0
rthumb -0.0367583 -771.405 0
578
root 7.00319 16.1559 -3.48755 -180.467 69.3189 -187.113
lfemur -20.0711 2.60328 -17.661
ltibia 53.2475 0 0
lfoot -36.1481 0.324272 0
ltoes -5.06242 0 0
rfemur -46.5159 -6.31492 7.24218
rtibia 32.4762 0 0
rfoot 14.4035 9.9383 0
rtoes -38.0437 0 0
lowerback 7.80294 -0.702205 -1.60029
upperback 3.00242 -0.837914 4.13029
thorax -1.18431 -0.390043 5.27353
lowerneck -3.93551 -14.1908 -4.54944
upperneck 9.2535 -19.1541 5.49189
head 4.37003 -9.32316 1.27643
lclavicle 2.36488e-14 -3.90212e-14 0
lhumerus -45.612 -10.6599 98.4321
lradius 54.4904 0 0
lwrist 20.9257 0 0
lhand -22.9318 -6.42971 0
lfingers 7.12502 0 0
lthumb 3.50969 23.5406 0
rclavicle 2.36488e-14 -3.90212e-14 0
rhumerus 26.5867 17.9981 -74.7082
rradius 134.883 0 0
rwrist -43.0083 0 0
rhand -26.6012 -21.399 0
rfingers 7.12502 0 0
rthumb -0.0348669 -771.38 0
579
root 6.94582 16.1774 -3.48053 -180.953 69.6166 -187.547
lfemur -20.0915 2.46845 -17.6414
ltibia 53.344 0 0
lfoot -36.1089 0.313072 0
ltoes -5.07861 0 0
rfemur -46.4932 -6.36659 7.19418
rtibia 32.9189 0 0
rfoot 14.2739 9.72133 0
rtoes -37.9208 0 0
lowerback 7.80192 -0.685146 -1.62059
upperback 3.02426 -0.812778 4.13236
thorax -1.16247 -0.377246 5.28497
lowerneck -3.92447 -14.2116 -4.56898
upperneck 9.2642 -19.1841 5.52681
head 4.37786 -9.33646 1.28652
lclavicle 2.32446e-14 -3.83046e-14 0
lhumerus -45.4155 -10.7334 98.2509
lradius 54.456 0 0
lwrist 21.0468 0 0
lhand -22.9657 -6.37915 0
lfingers 7.12502 0 0
lthumb 3.47701 23.5933 0
rclavicle 2.32446e-14 -3.83046e-14 0
rhumerus 26.4948 18.0786 -74.7619
rradius 134.973 0 0
rwrist -42.9298 0 0
rhand -26.5941 -21.3588 0
rfingers 7.12502 0 0
rthumb -0.0280182 -771.34 0
580
root 6.88845 16.1988 -3.47352 -180.939 70.0465 -187.47
lfemur -20.0854 2.37481 -17.6353
ltibia 53.3619 0 0
lfoot -36.0281 0.426686 0
ltoes -5.01287 0 0
rfemur -46.4807 -6.48721 7.22943
rtibia 33.6316 0 0
rfoot 14.107 9.50045 0
rtoes -37.5944 0 0
lowerback 7.77272 -0.672933 -1.67168
upperback 3.03705 -0.796261 4.11733
thorax -1.13294 -0.369157 5.29585
lowerneck -3.93013 -14.2205 -4.57949
upperneck 9.30558 -19.2017 5.56864
head 4.3974 -9.34168 1.29604
lclavicle 2.27856e-14 -3.7126e-14 0
lhumerus -45.0252 -10.9686 97.9459
lradius 54.41 0 0
lwrist 21.2043 0 0
lhand -22.9622 -6.28371 0
lfingers 7.12502 0 0
lthumb 3.48043 23.6897 0
rclavicle 2.27856e-14 -3.7126e-14 0
rhumerus 26.3848 18.1373 -74.8018
rradius 135.044 0 0
rwrist -42.8735 0 0
rhand -26.5792 -21.2989 0
rfingers 7.12502 0 0
rthumb -0.0136404 -771.28 0
581
root 6.83109 16.2202 -3.46651 -180.314 70.6421 -186.77
lfemur -20.0411 2.33633 -17.6468
ltibia 53.2683 0 0
lfoot -35.8962 0.697165 0
ltoes -4.84845 0 0
rfemur -46.4798 -6.68978 7.37024
rtibia 34.6509 0 0
rfoot 13.9072 9.28174 0
rtoes -37.023 0 0
lowerback 7.70727 -0.667353 -1.76111
upperback 3.03692 -0.791668 4.08048
thorax -1.09483 -0.367622 5.30561
lowerneck -3.95704 -14.2141 -4.57831
upperneck 9.38435 -19.203 5.61695
head 4.43102 -9.33653 1.30425
lclavicle 2.2234e-14 -3.54174e-14 0
lhumerus -44.4028 -11.398 97.4917
lradius 54.3503 0 0
lwrist 21.3997 0 0
lhand -22.9123 -6.13624 0
lfingers 7.12502 0 0
lthumb 3.52863 23.8365 0
rclavicle 2.2234e-14 -3.54174e-14 0
rhumerus 26.2626 18.1677 -74.8183
rradius 135.091 0 0
rwrist -42.8443 0 0
rhand -26.5539 -21.2151 0
rfingers 7.12502 0 0
rthumb 0.0108385 -771.196 0
582
root 6.77372 16.2416 -3.4595 -178.965 71.4368 -185.337
lfemur -19.9472 2.36699 -17.6802
ltibia 53.0304 0 0
lfoot -35.7034 1.15656 0
ltoes -4.56859 0 0
rfemur -46.4918 -6.98729 7.63895
rtibia 36.0135 0 0
rfoot 13.679 9.07133 0
rtoes -36.1651 0 0
lowerback 7.5975 -0.670197 -1.89645
upperback 3.02001 -0.802306 4.01706
thorax -1.04725 -0.374491 5.31369
lowerneck -4.00971 -14.189 -4.56276
upperneck 9.50724 -19.184 5.67135
head 4.48107 -9.31874 1.31045
lclavicle 2.15521e-14 -3.31105e-14 0
lhumerus -43.5101 -12.0545 96.8627
lradius 54.2744 0 0
lwrist 21.6346 0 0
lhand -22.807 -5.92961 0
lfingers 7.12502 0 0
lthumb 3.63031 24.0407 0
rclavicle 2.15521e-14 -3.31105e-14 0
rhumerus 26.1344 18.1634 -74.8015
rradius 135.109 0 0
rwrist -42.8473 0 0
rhand -26.5154 -21.1033 0
rfingers 7.12502 0 0
rthumb 0.0479904 -771.084 0
583
root 6.71635 16.2631 -3.45249 -176.783 72.4641 -183.058
lfemur -19.7921 2.48075 -17.7395
ltibia 52.6156 0 0
lfoot -35.4402 1.83692 0
ltoes -4.15655 0 0
rfemur -46.518 -7.39273 8.05786
rtibia 37.7564 0 0
rfoot 13.427 8.87531 0
rtoes -34.9793 0 0
lowerback 7.43533 -0.683253 -2.08525
upperback 2.98247 -0.831482 3.92233
thorax -0.989337 -0.391609 5.31952
lowerneck -4.09269 -14.1419 -4.53019
upperneck 9.68096 -19.141 5.73142
head 4.54993 -9.28604 1.31391
lclavicle 2.07019e-14 -3.01371e-14 0
lhumerus -42.309 -12.9706 96.0334
lradius 54.1803 0 0
lwrist 21.9105 0 0
lhand -22.6373 -5.65668 0
lfingers 7.12502 0 0
lthumb 3.79414 24.3091 0
rclavicle 2.07019e-14 -3.01371e-14 0
rhumerus 26.0061 18.1181 -74.7417
rradius 135.092 0 0
rwrist -42.8872 0 0
rhand -26.4611 -20.9592 0
rfingers 7.12502 0 0
rthumb 0.100387 -770.939 0
